<?xml version="1.0" encoding="utf-8"?>
<!-- Generator: Adobe Illustrator 24.1.2, SVG Export Plug-In . SVG Version: 6.00 Build 0)  -->
<svg version="1.1" id="Calque_1" xmlns="http://www.w3.org/2000/svg" xmlns:xlink="http://www.w3.org/1999/xlink" x="0px" y="0px"
	 viewBox="0 0 1000 768" style="enable-background:new 0 0 1000 768;" xml:space="preserve">
<style type="text/css">
	.st0{fill:#29335C;}
	.st1{fill:#007FFF;}
	.st2{fill:#00CEFF;}
	.st3{enable-background:new    ;}
</style>
<path id="Rectangle_3_2_" class="st0" d="M61.24,262.84h46.09c5.66,0,10.24,4.59,10.24,10.24V498.4c0,5.66-4.59,10.24-10.24,10.24
	H61.24c-5.66,0-10.24-4.59-10.24-10.24V273.08C51,267.42,55.59,262.84,61.24,262.84z"/>
<path id="Rectangle_4_1_" class="st1" d="M127.81,262.84h46.09c5.66,0,10.24,4.59,10.24,10.24V498.4c0,5.66-4.59,10.24-10.24,10.24
	h-46.09c-5.66,0-10.24-4.59-10.24-10.24V273.08C117.57,267.42,122.16,262.84,127.81,262.84z"/>
<path id="Rectangle_5_2_" class="st2" d="M194.09,272.99l44.52-11.94c5.46-1.46,11.08,1.78,12.55,7.24l58.36,217.66
	c1.46,5.46-1.78,11.08-7.24,12.55l-44.52,11.94c-5.46,1.46-11.08-1.78-12.55-7.24l-58.36-217.66
	C185.38,280.07,188.62,274.45,194.09,272.99z"/>
<g class="st3">
	<path class="st0" d="M409.64,353.3c0.49,1.18,0.98,2.36,1.46,3.56c0.48-1.23,0.97-2.44,1.48-3.64c0.51-1.19,1.06-2.34,1.64-3.43
		l21.92-41.02c0.27-0.51,0.56-0.92,0.85-1.23c0.29-0.31,0.61-0.53,0.97-0.66c0.36-0.14,0.76-0.22,1.2-0.26
		c0.44-0.03,0.97-0.05,1.59-0.05h10.4v74.05H439v-47.83c0-0.89,0.03-1.86,0.08-2.92c0.05-1.06,0.13-2.13,0.23-3.22l-22.38,41.99
		c-0.51,0.96-1.18,1.7-2,2.23c-0.82,0.53-1.78,0.79-2.87,0.79h-1.89c-1.09,0-2.05-0.26-2.87-0.79c-0.82-0.53-1.48-1.27-2-2.23
		l-22.68-42.15c0.14,1.13,0.23,2.23,0.28,3.3c0.05,1.08,0.08,2.07,0.08,3v47.83h-12.14v-74.05h10.4c0.61,0,1.14,0.02,1.59,0.05
		c0.44,0.03,0.84,0.12,1.2,0.26c0.36,0.14,0.69,0.36,1,0.66c0.31,0.31,0.6,0.72,0.87,1.23l22.12,41.12
		C408.6,350.98,409.14,352.12,409.64,353.3z"/>
	<path class="st0" d="M506.55,380.62h-5.68c-1.2,0-2.13-0.18-2.82-0.54c-0.68-0.36-1.2-1.08-1.54-2.18l-1.13-3.74
		c-1.33,1.19-2.64,2.24-3.92,3.15c-1.28,0.9-2.6,1.66-3.97,2.28c-1.37,0.61-2.82,1.07-4.35,1.38c-1.54,0.31-3.24,0.46-5.12,0.46
		c-2.22,0-4.27-0.3-6.14-0.9c-1.88-0.6-3.49-1.5-4.84-2.7c-1.35-1.2-2.4-2.69-3.15-4.47c-0.75-1.78-1.13-3.85-1.13-6.22
		c0-1.99,0.52-3.95,1.56-5.88c1.04-1.93,2.77-3.68,5.2-5.24c2.42-1.56,5.65-2.85,9.68-3.88c4.03-1.03,9.03-1.54,15-1.54v-3.1
		c0-3.54-0.74-6.17-2.23-7.87c-1.48-1.7-3.64-2.56-6.48-2.56c-2.05,0-3.76,0.24-5.12,0.72c-1.37,0.48-2.55,1.02-3.56,1.61
		c-1.01,0.6-1.94,1.14-2.79,1.61c-0.85,0.48-1.79,0.72-2.82,0.72c-0.85,0-1.59-0.22-2.2-0.66c-0.61-0.44-1.11-0.99-1.49-1.64
		l-2.3-4.04c6.04-5.53,13.33-8.3,21.87-8.3c3.07,0,5.81,0.51,8.22,1.51c2.41,1.01,4.45,2.41,6.12,4.2c1.67,1.79,2.94,3.94,3.82,6.43
		c0.87,2.49,1.31,5.22,1.31,8.19V380.62z M481.97,372.73c1.3,0,2.49-0.12,3.58-0.35c1.09-0.24,2.13-0.59,3.1-1.06
		c0.97-0.47,1.91-1.05,2.82-1.74c0.9-0.69,1.82-1.5,2.74-2.45v-8.79c-3.69,0-6.77,0.23-9.24,0.7c-2.48,0.46-4.46,1.06-5.97,1.78
		c-1.5,0.72-2.57,1.57-3.2,2.53c-0.63,0.96-0.95,2.01-0.95,3.15c0,2.24,0.66,3.83,1.97,4.8
		C478.13,372.25,479.85,372.73,481.97,372.73z"/>
</g>
<g class="st3">
	<path class="st0" d="M372.28,477.92v-73.38h23.4c4.51,0,8.39,0.44,11.65,1.33c3.26,0.89,5.94,2.15,8.04,3.79
		c2.1,1.64,3.65,3.65,4.66,6.02c1.01,2.37,1.51,5.04,1.51,8.01c0,1.81-0.28,3.55-0.84,5.22c-0.56,1.67-1.42,3.22-2.56,4.66
		c-1.14,1.43-2.58,2.71-4.3,3.84c-1.72,1.13-3.75,2.05-6.07,2.76c5.36,1.06,9.41,2.99,12.14,5.79c2.73,2.8,4.1,6.49,4.1,11.06
		c0,3.11-0.57,5.94-1.72,8.5c-1.14,2.56-2.82,4.76-5.02,6.61c-2.2,1.84-4.9,3.27-8.09,4.28c-3.19,1.01-6.84,1.51-10.93,1.51H372.28z
		 M382.21,437.41h13.11c2.8,0,5.22-0.31,7.27-0.92c2.05-0.61,3.75-1.47,5.09-2.56c1.35-1.09,2.35-2.41,3-3.97
		c0.65-1.55,0.97-3.25,0.97-5.1c0-4.3-1.3-7.46-3.89-9.47c-2.59-2.01-6.62-3.02-12.09-3.02h-13.47V437.41z M382.21,444.48v25.55
		h15.87c2.83,0,5.27-0.33,7.3-0.97c2.03-0.65,3.7-1.56,5.02-2.74c1.31-1.18,2.28-2.58,2.89-4.2c0.61-1.62,0.92-3.41,0.92-5.35
		c0-3.79-1.34-6.78-4.02-8.99c-2.68-2.2-6.73-3.3-12.16-3.3H382.21z"/>
	<path class="st0" d="M449.3,409.76c0,0.89-0.18,1.72-0.54,2.48s-0.84,1.45-1.43,2.05c-0.6,0.6-1.29,1.07-2.07,1.41
		c-0.79,0.34-1.62,0.51-2.51,0.51s-1.72-0.17-2.48-0.51c-0.77-0.34-1.45-0.81-2.05-1.41c-0.6-0.6-1.07-1.28-1.41-2.05
		c-0.34-0.77-0.51-1.6-0.51-2.48c0-0.89,0.17-1.73,0.51-2.53c0.34-0.8,0.81-1.5,1.41-2.1c0.6-0.6,1.28-1.07,2.05-1.41
		c0.77-0.34,1.6-0.51,2.48-0.51s1.72,0.17,2.51,0.51c0.79,0.34,1.48,0.81,2.07,1.41c0.6,0.6,1.08,1.3,1.43,2.1
		C449.12,408.02,449.3,408.87,449.3,409.76z M447.25,426.04v51.87h-9.11v-51.87H447.25z"/>
	<path class="st0" d="M463.63,477.92v-75.43h9.17v31.03c2.15-2.49,4.62-4.5,7.4-6.02c2.78-1.52,5.97-2.28,9.55-2.28
		c3,0,5.72,0.56,8.14,1.69c2.42,1.13,4.49,2.81,6.2,5.04c1.71,2.24,3.02,5,3.94,8.3c0.92,3.3,1.38,7.09,1.38,11.39
		c0,3.82-0.51,7.38-1.54,10.68c-1.02,3.3-2.5,6.15-4.43,8.55c-1.93,2.41-4.28,4.3-7.07,5.68c-2.78,1.38-5.91,2.07-9.4,2.07
		c-3.35,0-6.19-0.65-8.53-1.95c-2.34-1.3-4.38-3.11-6.12-5.43l-0.46,4.71c-0.27,1.3-1.06,1.95-2.36,1.95H463.63z M486.78,432.49
		c-2.97,0-5.57,0.68-7.81,2.05s-4.29,3.3-6.17,5.79v25.09c1.64,2.25,3.46,3.84,5.45,4.76c2,0.92,4.22,1.38,6.68,1.38
		c4.85,0,8.57-1.72,11.16-5.17c2.59-3.45,3.89-8.36,3.89-14.75c0-3.38-0.3-6.28-0.9-8.7c-0.6-2.42-1.46-4.41-2.59-5.97
		c-1.13-1.55-2.51-2.69-4.15-3.41C490.72,432.85,488.86,432.49,486.78,432.49z"/>
	<path class="st0" d="M530.72,402.49v75.43h-9.11v-75.43H530.72z"/>
	<path class="st0" d="M558.98,409.76c0,0.89-0.18,1.72-0.54,2.48s-0.84,1.45-1.43,2.05c-0.6,0.6-1.29,1.07-2.07,1.41
		c-0.79,0.34-1.62,0.51-2.51,0.51c-0.89,0-1.72-0.17-2.48-0.51s-1.45-0.81-2.05-1.41c-0.6-0.6-1.07-1.28-1.41-2.05
		c-0.34-0.77-0.51-1.6-0.51-2.48c0-0.89,0.17-1.73,0.51-2.53c0.34-0.8,0.81-1.5,1.41-2.1c0.6-0.6,1.28-1.07,2.05-1.41
		s1.6-0.51,2.48-0.51c0.89,0,1.72,0.17,2.51,0.51c0.79,0.34,1.48,0.81,2.07,1.41c0.6,0.6,1.08,1.3,1.43,2.1
		C558.8,408.02,558.98,408.87,558.98,409.76z M556.93,426.04v51.87h-9.11v-51.87H556.93z"/>
	<path class="st0" d="M594.01,425.22c3.79,0,7.21,0.63,10.27,1.89c3.05,1.26,5.65,3.05,7.78,5.38c2.13,2.32,3.77,5.13,4.92,8.42
		c1.14,3.3,1.71,6.97,1.71,11.04c0,4.1-0.57,7.79-1.71,11.06c-1.14,3.28-2.78,6.08-4.92,8.4c-2.13,2.32-4.73,4.11-7.78,5.35
		c-3.06,1.25-6.48,1.87-10.27,1.87s-7.21-0.62-10.27-1.87c-3.06-1.25-5.66-3.03-7.81-5.35c-2.15-2.32-3.81-5.12-4.97-8.4
		c-1.16-3.28-1.74-6.96-1.74-11.06c0-4.06,0.58-7.74,1.74-11.04c1.16-3.29,2.82-6.1,4.97-8.42c2.15-2.32,4.75-4.11,7.81-5.38
		C586.8,425.85,590.22,425.22,594.01,425.22z M594.01,471.52c5.12,0,8.94-1.72,11.47-5.15c2.53-3.43,3.79-8.22,3.79-14.36
		c0-6.18-1.26-10.99-3.79-14.44c-2.53-3.45-6.35-5.17-11.47-5.17c-2.6,0-4.85,0.44-6.76,1.33c-1.91,0.89-3.51,2.17-4.79,3.84
		c-1.28,1.67-2.24,3.73-2.87,6.17c-0.63,2.44-0.95,5.2-0.95,8.27s0.32,5.82,0.95,8.25c0.63,2.42,1.59,4.46,2.87,6.12
		c1.28,1.66,2.88,2.93,4.79,3.82C589.16,471.07,591.41,471.52,594.01,471.52z"/>
	<path class="st0" d="M645.68,478.74c-4.1,0-7.25-1.14-9.45-3.43c-2.2-2.29-3.3-5.58-3.3-9.88v-31.75h-6.25
		c-0.55,0-1.01-0.16-1.38-0.49c-0.38-0.32-0.56-0.83-0.56-1.51v-3.64l8.5-1.07l2.1-16.03c0.07-0.51,0.29-0.93,0.67-1.26
		c0.38-0.32,0.85-0.49,1.43-0.49h4.61v17.87h14.85v6.61h-14.85v31.14c0,2.19,0.53,3.81,1.59,4.87c1.06,1.06,2.42,1.59,4.1,1.59
		c0.96,0,1.78-0.13,2.48-0.38c0.7-0.26,1.31-0.54,1.82-0.84c0.51-0.31,0.95-0.59,1.31-0.85c0.36-0.26,0.67-0.38,0.95-0.38
		c0.48,0,0.9,0.29,1.28,0.87l2.66,4.35c-1.57,1.47-3.46,2.62-5.68,3.46C650.32,478.32,648.03,478.74,645.68,478.74z"/>
	<path class="st0" d="M668.16,477.92v-75.43h9.12v30.52c2.22-2.36,4.68-4.24,7.37-5.66c2.7-1.42,5.8-2.13,9.32-2.13
		c2.83,0,5.33,0.47,7.5,1.41c2.17,0.94,3.98,2.27,5.43,3.99c1.45,1.73,2.55,3.8,3.3,6.22c0.75,2.42,1.13,5.1,1.13,8.04v33.03h-9.11
		v-33.03c0-3.93-0.9-6.97-2.69-9.14c-1.79-2.17-4.53-3.25-8.22-3.25c-2.7,0-5.22,0.65-7.55,1.95c-2.34,1.3-4.5,3.06-6.48,5.27v38.2
		H668.16z"/>
	<path class="st0" d="M745.64,425.22c3.11,0,5.97,0.52,8.6,1.56c2.63,1.04,4.9,2.54,6.81,4.51c1.91,1.96,3.41,4.39,4.48,7.27
		c1.07,2.88,1.61,6.17,1.61,9.86c0,1.43-0.15,2.39-0.46,2.87c-0.31,0.48-0.89,0.72-1.74,0.72h-34.51c0.07,3.28,0.51,6.13,1.33,8.55
		c0.82,2.43,1.95,4.45,3.38,6.07c1.43,1.62,3.14,2.83,5.12,3.63c1.98,0.8,4.2,1.2,6.66,1.2c2.29,0,4.26-0.26,5.91-0.79
		c1.66-0.53,3.08-1.1,4.28-1.72c1.2-0.61,2.19-1.19,3-1.72c0.8-0.53,1.49-0.79,2.07-0.79c0.75,0,1.33,0.29,1.74,0.87l2.56,3.33
		c-1.13,1.37-2.48,2.55-4.05,3.56c-1.57,1.01-3.25,1.83-5.04,2.48c-1.79,0.65-3.64,1.14-5.56,1.46c-1.91,0.32-3.81,0.49-5.68,0.49
		c-3.58,0-6.89-0.61-9.91-1.82c-3.02-1.21-5.63-2.99-7.83-5.33c-2.2-2.34-3.92-5.23-5.15-8.68c-1.23-3.45-1.84-7.41-1.84-11.88
		c0-3.62,0.55-7,1.66-10.14c1.11-3.14,2.7-5.86,4.79-8.17c2.08-2.3,4.63-4.11,7.63-5.43C738.5,425.88,741.88,425.22,745.64,425.22z
		 M745.84,431.93c-4.4,0-7.87,1.27-10.4,3.82c-2.53,2.54-4.1,6.07-4.71,10.57h28.22c0-2.12-0.29-4.05-0.87-5.81
		c-0.58-1.76-1.43-3.28-2.56-4.56c-1.13-1.28-2.5-2.27-4.12-2.97C749.77,432.28,747.92,431.93,745.84,431.93z M740.72,403.71
		c1.13,0,1.96,0.18,2.51,0.54c0.55,0.36,1.06,0.93,1.54,1.72l7.63,12.39h-5.22c-0.72,0-1.3-0.11-1.74-0.33
		c-0.44-0.22-0.91-0.59-1.38-1.1l-11.98-13.21H740.72z"/>
	<path class="st0" d="M820.7,426.04v69.44h-9.11v-25.25c-2.19,2.53-4.67,4.56-7.45,6.09c-2.78,1.54-5.97,2.3-9.55,2.3
		c-2.97,0-5.67-0.57-8.09-1.72c-2.42-1.14-4.49-2.82-6.2-5.04c-1.71-2.22-3.02-4.98-3.94-8.3c-0.92-3.31-1.38-7.12-1.38-11.42
		c0-3.82,0.51-7.38,1.54-10.68c1.02-3.3,2.5-6.16,4.43-8.58c1.93-2.42,4.28-4.33,7.04-5.71c2.77-1.38,5.91-2.07,9.42-2.07
		c3.34,0,6.19,0.6,8.53,1.79c2.34,1.19,4.43,2.89,6.27,5.07l0.61-4.05c0.34-1.26,1.16-1.89,2.46-1.89H820.7z M797.61,471.26
		c2.97,0,5.57-0.68,7.81-2.05s4.29-3.3,6.17-5.79v-25.09c-1.64-2.19-3.47-3.75-5.48-4.69c-2.01-0.94-4.23-1.41-6.66-1.41
		c-4.85,0-8.57,1.72-11.16,5.17c-2.59,3.45-3.89,8.36-3.89,14.75c0,3.38,0.29,6.27,0.87,8.68c0.58,2.41,1.43,4.39,2.56,5.94
		c1.13,1.56,2.51,2.69,4.15,3.41C793.61,470.9,795.49,471.26,797.61,471.26z"/>
	<path class="st0" d="M843.9,426.04v33.08c0,3.93,0.9,6.97,2.71,9.12c1.81,2.15,4.54,3.23,8.19,3.23c2.66,0,5.17-0.63,7.53-1.89
		c2.36-1.26,4.52-3.02,6.5-5.27v-38.25h9.11v51.87h-5.43c-1.3,0-2.12-0.63-2.46-1.89l-0.72-5.58c-2.26,2.49-4.78,4.5-7.58,6.02
		c-2.8,1.52-6.01,2.28-9.62,2.28c-2.83,0-5.34-0.47-7.5-1.41c-2.17-0.94-3.99-2.26-5.45-3.97c-1.47-1.71-2.57-3.77-3.3-6.2
		c-0.73-2.42-1.1-5.1-1.1-8.04v-33.08H843.9z"/>
	<path class="st0" d="M913.49,425.22c3.11,0,5.97,0.52,8.6,1.56c2.63,1.04,4.9,2.54,6.81,4.51c1.91,1.96,3.41,4.39,4.48,7.27
		c1.08,2.88,1.61,6.17,1.61,9.86c0,1.43-0.15,2.39-0.46,2.87c-0.31,0.48-0.89,0.72-1.74,0.72h-34.51c0.07,3.28,0.51,6.13,1.33,8.55
		c0.82,2.43,1.95,4.45,3.38,6.07c1.43,1.62,3.14,2.83,5.12,3.63c1.98,0.8,4.2,1.2,6.66,1.2c2.29,0,4.26-0.26,5.91-0.79
		c1.66-0.53,3.08-1.1,4.28-1.72c1.19-0.61,2.19-1.19,3-1.72c0.8-0.53,1.49-0.79,2.07-0.79c0.75,0,1.33,0.29,1.74,0.87l2.56,3.33
		c-1.13,1.37-2.48,2.55-4.04,3.56c-1.57,1.01-3.25,1.83-5.04,2.48c-1.79,0.65-3.64,1.14-5.56,1.46c-1.91,0.32-3.81,0.49-5.68,0.49
		c-3.58,0-6.89-0.61-9.91-1.82c-3.02-1.21-5.63-2.99-7.84-5.33c-2.2-2.34-3.92-5.23-5.15-8.68c-1.23-3.45-1.84-7.41-1.84-11.88
		c0-3.62,0.56-7,1.66-10.14c1.11-3.14,2.71-5.86,4.79-8.17c2.08-2.3,4.63-4.11,7.63-5.43C906.36,425.88,909.74,425.22,913.49,425.22
		z M913.7,431.93c-4.4,0-7.87,1.27-10.4,3.82c-2.53,2.54-4.1,6.07-4.71,10.57h28.22c0-2.12-0.29-4.05-0.87-5.81
		c-0.58-1.76-1.43-3.28-2.56-4.56c-1.13-1.28-2.5-2.27-4.12-2.97C917.63,432.28,915.78,431.93,913.7,431.93z"/>
</g>
</svg>
